<?xml version="1.0" encoding="UTF-8"?>
<svg xmlns="http://www.w3.org/2000/svg" version="1.1" xmlns:xlink="http://www.w3.org/1999/xlink" viewBox="0 0 1156.2 385.7">
  <defs>
    <style>
      .cls-1 {
        fill: #9e0d3d;
      }

      .cls-2 {
        isolation: isolate;
      }

      .cls-3 {
        fill: #c56e8b;
      }

      .cls-4 {
        fill: url(#linear-gradient);
      }
    </style>
    <linearGradient id="linear-gradient" x1="40.9" y1="104.8" x2="378.3" y2="387.7" gradientTransform="translate(0 388) scale(1 -1)" gradientUnits="userSpaceOnUse">
      <stop offset="0" stop-color="#9e0d3d"/>
      <stop offset=".3" stop-color="#a01342"/>
      <stop offset=".7" stop-color="#a82752"/>
      <stop offset="1" stop-color="#b13d64"/>
    </linearGradient>
  </defs>
  <!-- Generator: Adobe Illustrator 28.7.1, SVG Export Plug-In . SVG Version: 1.2.0 Build 142)  -->
  <g>
    <g id="Layer_1">
      <path class="cls-4" d="M322,239.4c65.5-.7,118.3-54,118.3-119.7s-1-18.1-3-26.6c-8.5-37.2-34.2-67.8-68.3-82.9C354.2,3.6,337.9,0,320.6,0,295.8,0,272.6,7.6,253.5,20.6c-24.7,16.8-42.8,42.5-49.6,72.5-.7,3.2-1.3,6.4-1.8,9.7-.8,5.6-1.2,11.2-1.2,17s.1,6.2.4,9.2c1.3,59.7,24.3,113.9,61.2,154.7,9.3,10.3,19.5,19.8,30.5,28.3,1,.8,2.5.7,3.5-.2l21-20.8,10.2-10.1c1.1-1.1,1-2.9-.2-3.9-12.8-10.6-24.5-22.7-34.9-35.8-1.5-1.9.2-4.8,2.6-4.2,8.1,1.7,16.5,2.7,25.2,2.7s.9,0,1.4,0h0ZM389,124c0,29.8-21.1,54.7-49.1,60.6-3.9.6-7.9,1.1-12,1.3-2.4.1-4.8.2-7.2.2-20.4,0-39.6-5.1-56.5-14.1-2.2-1.2-4.4-2.4-6.5-3.8-.5-.3-.9-.8-1.1-1.4-2.5-7.7-4.2-15.7-5.1-24-.4-4.2-.7-8.5-.7-12.9s.2-8.6.7-12.8c0,0,0-.2,0-.2,6.1-32.7,34.8-57.4,69.2-57.4s30.7,5.3,42.5,14.3c6.8,5.2,12.6,11.5,17.2,18.8,5.5,9.2,8.6,20,8.6,31.5h0ZM253.6,350c1.1,1,1.1,2.8,0,3.8l-31.4,31.1c-1,1-2.7,1-3.8,0l-88.6-87.2-89.5-88.2h0c-17.7-15.7-30.7-36.6-36.7-60.3C1.3,139.8,0,130,0,119.9,0,102.3,3.8,85.6,10.6,70.6,29.4,29.1,70.7,0,119.2,0s6,0,8.7.2c15.7.9,31.8,5.1,46.7,12.7,5.7,2.9,11.2,6.4,16.2,9.9,4.4,3.2,8.3,6.4,11.6,9.6,1,1,1.1,2.6.1,3.7-10.4,11.6-16.3,17.4-22.8,32.6,0,.1-.9,2.2-1.8,4.2-.7,1.6-2.7,2.1-4.1,1.1h0c-7.9-6.1-16.5-9.5-20.6-11,0,0-.1,0-.2,0-4.8-1.3-10.5-2.5-15.5-3.2-2.4-.2-5.4-.3-7.8-.3-37.9,0-69.3,31.8-69.3,70.7s5.4,32.9,15.7,45.1c0,0,.1.1.2.2l5.2,5.1c1.8,1.6,3.7,3.2,5.6,4.7.2.2.4.3.7.4,13.2,5,27.5,7.7,42.4,7.8,12.8,0,30.3-3.2,43.5-8,1.5-.5,3.1.3,3.5,1.8,2.7,10,6.1,19.7,10,29.1.5,1.2,0,2.6-1,3.3-2.9,1.9-5.7,3.6-8.3,5.1-10.5,6-21.2,9.9-33.2,12.3-2.1.4-2.9,3-1.4,4.5l39.3,38.7,70.9,69.8h0Z"/>
      <g class="cls-2">
        <path class="cls-1" d="M479.5,50.2c0-5.2,1.3-6.5,6.5-6.5h42.9c5.2,0,6.5,1.3,6.5,6.5v3c0,5.2-1.3,6.5-6.5,6.5h-32.1v23.2h21.1c5.2,0,6.5,1.3,6.5,6.5v3c0,5.2-1.3,6.5-6.5,6.5h-21.1v29.7c0,5.2-1.3,6.5-6.5,6.5h-4.3c-5.2,0-6.5-1.3-6.5-6.5V50.2Z"/>
        <path class="cls-1" d="M556.4,42.2c6.3,0,9.3,4.3,9.3,9.4s-3,9.3-9.3,9.3-9.4-4.2-9.4-9.3,3.1-9.4,9.4-9.4ZM548.2,79.2c0-5.2,1.3-6.5,6.5-6.5h3.3c5.2,0,6.5,1.3,6.5,6.5v49.5c0,5.2-1.3,6.5-6.5,6.5h-3.3c-5.2,0-6.5-1.3-6.5-6.5v-49.5Z"/>
        <path class="cls-1" d="M602.2,72.7h9.4c5.1,0,6.5,1.3,6.5,6.5v2c0,5.2-1.4,6.5-6.5,6.5h-9.4v23.4c0,8.2,3.3,10.1,6.9,10.1s4.3-.4,6.2-.4c2.4-.1,3.7,1.2,3.7,4.4v5.9c0,3.3-1.8,4.6-4.4,4.7-2.4.3-5,.4-7.3.4-14.4,0-21.3-7.2-21.3-20.8v-27.7h-3.5c-5.2,0-6.5-1.3-6.5-6.5v-2c0-5.2,1.3-6.5,6.5-6.5h3.5l4.2-9.8c1.8-3.4,3.4-7.5,6.7-7.5h1c3.5,0,4.4,1.3,4.4,6.5v10.7Z"/>
        <path class="cls-1" d="M647.8,83.8c1.8-7.3,9.2-12.6,19.5-12.6s21.7,8.5,21.7,24.1v33.4c0,5.2-1.3,6.5-6.5,6.5h-3.3c-5.2,0-6.5-1.3-6.5-6.5v-30.1c0-8.2-3.5-13.2-9.9-13.2s-14.9,7.9-14.9,18.6v24.7c0,5.2-1.3,6.5-6.5,6.5h-3.3c-5.2,0-6.5-1.3-6.5-6.5v-49.5c0-5.2,1.3-6.5,6.5-6.5h3.3c5.2,0,6.5,1.3,6.5,6.5v4.6Z"/>
        <path class="cls-1" d="M763.9,103.1v1.7c0,5.2-1.3,6.5-6.5,6.5h-37.4c1.8,7.5,6.7,11.4,15.6,11.4s11.5-1.8,14.9-3.8c4.6-2.4,5.6-2.4,7.9-.1l3.1,3c1.2,1.3,1.8,2.5,1.8,3.5s-.8,2.2-2.4,3.5c-5,4.2-12.3,7.7-25.3,7.7-19.5,0-33-10.9-33-32.6s11.4-32.7,30.6-32.7,30.6,13.6,30.6,31.8ZM719.5,97.7h27.9c-1.4-8.1-6.3-12.6-14.1-12.6s-12.3,4.3-13.7,12.6Z"/>
        <path class="cls-1" d="M821.5,76.6c2.2,1.7,3.4,3.1,3.4,4.7s-.7,2.4-2,3.8l-1.6,1.7c-1.7,1.8-3.3,2.7-5,2.7s-2.6-.5-3.9-1.4c-2.9-2-6.2-3-10.5-3s-7.7,1.3-7.7,4.7c0,9.6,32.5,2.6,32.5,26.3s-7.6,20.4-26.4,20.4-18.5-2-23.8-7.2c-1.4-1.3-2.1-2.5-2.1-3.7s.8-2.6,2.2-4.1l1.8-1.7c3.7-3.7,5.4-4.1,8.1-1.6,2.9,2.7,6.8,4.3,13.9,4.3s10.1-2.2,10.1-6.3c0-11.5-32.5-1.8-32.5-25.9s9.9-19.2,24-19.2,15.1,2,19.5,5.4Z"/>
        <path class="cls-1" d="M883.1,76.6c2.2,1.7,3.4,3.1,3.4,4.7s-.7,2.4-2,3.8l-1.6,1.7c-1.7,1.8-3.3,2.7-5,2.7s-2.6-.5-3.9-1.4c-2.9-2-6.2-3-10.5-3s-7.7,1.3-7.7,4.7c0,9.6,32.5,2.6,32.5,26.3s-7.6,20.4-26.4,20.4-18.5-2-23.8-7.2c-1.4-1.3-2.1-2.5-2.1-3.7s.8-2.6,2.2-4.1l1.8-1.7c3.7-3.7,5.4-4.1,8.1-1.6,2.9,2.7,6.8,4.3,13.9,4.3s10.1-2.2,10.1-6.3c0-11.5-32.5-1.8-32.5-25.9s9.9-19.2,24-19.2,15.1,2,19.5,5.4Z"/>
      </g>
      <g class="cls-2">
        <g class="cls-2">
          <path class="cls-3" d="M498.8,300.5h5v28.5h-5v-11.9h-11.8v11.9h-5v-28.5h5v12.1h11.8v-12.1Z"/>
          <path class="cls-3" d="M538.5,329h-6.3l-6.9-8.1v8.1h-4.8v-19.3h4.8v8l7.3-8h4.6v4.3h-2.6l-4.8,5.1,8.8,9.9Z"/>
          <path class="cls-3" d="M563.5,324.7v4.5h-2.3c-2,0-4.6-.5-5.3-3.6-1.2,2.3-3.9,3.8-6.8,3.8-4.8,0-9.3-4-9.3-10.2s4.3-10.1,9.5-10.1,5.2,1.2,6.5,3.2v-2.7h4.8v13.4c0,1.2.6,1.6,1.6,1.6h1.5ZM555.5,319.3c0-3.3-2.7-5.7-5.6-5.7s-5.4,2.6-5.4,5.7,2.4,5.7,5.5,5.7,5.5-2.5,5.5-5.7Z"/>
          <path class="cls-3" d="M587.8,319.3c0,6.2-4.5,10.2-9.3,10.2s-5.2-1.2-6.6-3v12c0,0-4.8,0-4.8,0v-17.1c0-8.8,5.2-12.2,10.4-12.2s10.3,4.3,10.3,10.1ZM583.1,319.3c0-3.1-2.4-5.7-5.5-5.7s-5.6,2.4-5.6,5.7,2.6,5.7,5.5,5.7,5.5-2.6,5.5-5.7Z"/>
          <path class="cls-3" d="M607.9,310.9c2.2,2.1,4.5,4.7,4.5,8.7,0,6.1-5,9.9-10.6,9.9s-10.5-4.3-10.5-10.2,3.4-8.8,8.1-10.2l-6.1-6.2v-3.7h17.7v4.5h-10.7l7.6,7.2ZM607.3,319.6c0-3-2.4-5-4.7-7.2-4.3.5-6.6,3.3-6.6,6.7s2.6,5.8,5.7,5.8,5.6-2.3,5.6-5.4Z"/>
          <path class="cls-3" d="M622.2,329.2c-2.3,0-5.5-.7-5.5-5.2v-14.3h4.8v13.5c0,1.2.6,1.6,1.5,1.6h1.5v4.5h-2.3Z"/>
          <path class="cls-3" d="M651,324.7v4.5h-2.3c-2,0-4.6-.5-5.3-3.6-1.2,2.3-3.9,3.8-6.8,3.8-4.8,0-9.3-4-9.3-10.2s4.3-10.1,9.5-10.1,5.2,1.2,6.5,3.2v-2.7h4.8v13.4c0,1.2.6,1.6,1.6,1.6h1.5ZM643,319.3c0-3.3-2.7-5.7-5.6-5.7s-5.4,2.6-5.4,5.7,2.4,5.7,5.5,5.7,5.5-2.5,5.5-5.7ZM644,299.9l-5.2,6.7h-3.8l3.9-6.7h5.1Z"/>
          <path class="cls-3" d="M686.9,309.7v4.4h-4.3c1.2,1.4,2,3.5,2,5.6,0,6.1-4.8,9.8-10.3,9.8s-10.3-3.8-10.3-10,4.7-9.8,10.8-9.8h11.9ZM679.8,319.5c0-3.3-2.5-5.5-5.5-5.5s-5.4,2.2-5.4,5.5,2.4,5.5,5.4,5.5,5.5-2.1,5.5-5.5Z"/>
          <path class="cls-3" d="M706.3,314.1h-6.9v9c0,1.2.6,1.6,1.5,1.6h2.7v4.5h-3.6c-2.3,0-5.5-.7-5.5-5.2v-9.9h-6v-4.5h17.7v4.5Z"/>
          <path class="cls-3" d="M708.8,319.3c0-6.1,4.8-10.1,10.3-10.1s10.3,4,10.3,10.1-4.8,10.2-10.3,10.2-10.3-4.1-10.3-10.2ZM724.5,319.3c0-3.3-2.5-5.7-5.5-5.7s-5.4,2.4-5.4,5.7,2.4,5.7,5.4,5.7,5.5-2.3,5.5-5.7Z"/>
          <path class="cls-3" d="M746.2,309.7h5.2l-8.1,19.3h-4.4l-8.1-19.3h5.2l5.1,13.2,5.1-13.2Z"/>
          <path class="cls-3" d="M782.4,329h-6.3l-6.9-8.1v8.1h-4.8v-19.3h4.8v8l7.3-8h4.6v4.3h-2.6l-4.8,5.1,8.8,9.9Z"/>
          <path class="cls-3" d="M783.6,319.3c0-6.1,4.8-10.1,10.3-10.1s10.3,4,10.3,10.1-4.8,10.2-10.3,10.2-10.3-4.1-10.3-10.2ZM799.3,319.3c0-3.3-2.5-5.7-5.5-5.7s-5.4,2.4-5.4,5.7,2.4,5.7,5.4,5.7,5.5-2.3,5.5-5.7ZM791.3,306.6l4-6.7h5.1l-5.2,6.7h-3.9Z"/>
          <path class="cls-3" d="M830.2,309.7v4.4h-4.3c1.2,1.4,2,3.5,2,5.6,0,6.1-4.8,9.8-10.3,9.8s-10.3-3.8-10.3-10,4.7-9.8,10.8-9.8h11.9ZM823.1,319.5c0-3.3-2.5-5.5-5.5-5.5s-5.4,2.2-5.4,5.5,2.4,5.5,5.4,5.5,5.5-2.1,5.5-5.5Z"/>
          <path class="cls-3" d="M855.2,324.7v4.5h-2.3c-2.6,0-4.3-.9-5-2.9-1.2,2.1-3.8,3.1-5.7,3.1s-2.9-.6-3.7-1.3v10.4h-4.8v-28.7h4.8v10.6c0,3.1,1.9,4.7,4,4.7s4.9-1.2,4.9-5v-10.3h4.8v13.4c0,1.2.6,1.6,1.5,1.6h1.5Z"/>
          <path class="cls-3" d="M858.2,319.3c0-6.1,4.8-10.1,10.3-10.1s10.3,4,10.3,10.1-4.8,10.2-10.3,10.2-10.3-4.1-10.3-10.2ZM873.9,319.3c0-3.3-2.5-5.7-5.5-5.7s-5.4,2.4-5.4,5.7,2.4,5.7,5.4,5.7,5.5-2.3,5.5-5.7Z"/>
          <path class="cls-3" d="M908.1,314.1h-6.9v9c0,1.2.6,1.6,1.5,1.6h2.7v4.5h-3.6c-2.3,0-5.5-.7-5.5-5.2v-9.9h-6v-4.5h17.7v4.5Z"/>
          <path class="cls-3" d="M910.6,319.3c0-6.1,4.8-10.1,10.3-10.1s10.3,4,10.3,10.1-4.8,10.2-10.3,10.2-10.3-4.1-10.3-10.2ZM926.3,319.3c0-3.3-2.5-5.7-5.5-5.7s-5.4,2.4-5.4,5.7,2.4,5.7,5.4,5.7,5.5-2.3,5.5-5.7Z"/>
          <path class="cls-3" d="M935.3,319.9v-10.3h4.8v10.1c0,3.5,2.1,5.2,4.4,5.2s4.6-2.1,4.6-5.5-1-6.4-2.6-9.8h4.8c1.8,3.3,2.7,7.2,2.7,10.3,0,6-4.1,9.5-9.3,9.5s-9.2-3.6-9.2-9.5Z"/>
          <path class="cls-3" d="M986.7,305h-12.2v7.7h9.7v4.5h-9.7v11.7h-5v-28.5h17.3v4.5Z"/>
          <path class="cls-3" d="M990.2,302.8c0-1.7,1.4-2.9,3.1-2.9s3.1,1.2,3.1,2.9-1.4,2.9-3.1,2.9-3.1-1.3-3.1-2.9ZM990.9,329v-19.3h4.8v19.3h-4.8Z"/>
          <path class="cls-3" d="M1012,309.7v3.8h-4.1v15.5h-4.8v-15.5h-3.5v-3.8h3.5v-7.1h4.8v7.1h4.1Z"/>
          <path class="cls-3" d="M1034.2,318.1v10.8h-4.8v-10.5c0-3.1-1.9-4.8-4-4.8s-4.9,1.3-4.9,5v10.3h-4.8v-19.3h4.8v3.1c1-2.4,4-3.6,6-3.6,5,0,7.7,3.3,7.7,9Z"/>
          <path class="cls-3" d="M1058.4,321h-15c.5,2.7,2.6,4.1,5.5,4.1s4.1-.9,5.2-2.5l3.2,2.4c-1.8,2.8-5.2,4.4-8.7,4.4-5.7,0-10.1-4.1-10.1-10.2s4.6-10.1,10.1-10.1,9.8,3.9,9.8,10,0,1.2,0,1.9ZM1053.7,317.6c-.3-2.6-2.4-4.2-5-4.2s-4.7,1.3-5.2,4.2h10.3Z"/>
          <path class="cls-3" d="M1061.6,323h4.5c0,1.3,1.2,2.6,3.2,2.6s3.1-1,3.1-2.2-.8-1.6-2.3-1.9l-2.6-.7c-4.3-1.2-5.5-3.5-5.5-5.9s3-5.7,7.2-5.7,7.3,1.7,7.3,6h-4.6c0-1.3-1.2-2.1-2.6-2.1s-2.5.9-2.5,2.1,1,1.6,2.1,1.8l3.1.8c4.3,1.1,5.1,3.8,5.1,5.6,0,3.9-3.9,6.1-7.9,6.1s-7.7-2.3-7.8-6.4Z"/>
          <path class="cls-3" d="M1080.4,323h4.5c0,1.3,1.2,2.6,3.2,2.6s3.1-1,3.1-2.2-.8-1.6-2.3-1.9l-2.6-.7c-4.3-1.2-5.5-3.5-5.5-5.9s3-5.7,7.2-5.7,7.3,1.7,7.3,6h-4.6c0-1.3-1.2-2.1-2.6-2.1s-2.5.9-2.5,2.1,1,1.6,2.1,1.8l3.1.8c4.3,1.1,5.1,3.8,5.1,5.6,0,3.9-3.9,6.1-7.9,6.1s-7.7-2.3-7.8-6.4Z"/>
        </g>
      </g>
      <g class="cls-2">
        <path class="cls-1" d="M480.3,177.3c0-5.2,1.3-6.5,6.5-6.5h24.2c20.3,0,35.6,4.7,35.6,27.6s-14.3,27.7-35.3,27.7h-13.6v29.7c0,5.2-1.3,6.5-6.5,6.5h-4.3c-5.2,0-6.5-1.3-6.5-6.5v-78.5ZM497.7,186.8v23.2h13.7c11.8,0,17-3.4,17-11.9s-5.2-11.3-17-11.3h-13.7Z"/>
        <path class="cls-1" d="M597.9,208.5c0,3.8-2,5.1-4.8,4.8-1.3-.3-2.2-.3-3.1-.3-6.3,0-15.1,5.1-15.1,20.5v22.1c0,5.2-1.3,6.5-6.5,6.5h-3.1c-5.2,0-6.5-1.3-6.5-6.5v-49.5c0-5.2,1.3-6.5,6.5-6.5h1.7c5.2,0,6.5,1.3,6.5,6.5v6.4c1.7-8.6,9-15.2,18.3-15.2h1.8c2.5.1,4.3.9,4.3,4.8v6.2Z"/>
        <path class="cls-1" d="M636.5,263.6c-19.9,0-32.8-11.3-32.8-32.6s13-32.7,32.8-32.7,33,11.4,33,32.7-12.8,32.6-33,32.6ZM636.5,249.5c10.1,0,16.4-6.7,16.4-18.5s-6.3-18.6-16.4-18.6-16.2,6.8-16.2,18.6,6.3,18.5,16.2,18.5Z"/>
        <path class="cls-1" d="M738,262.3c-5.2,0-6.7-1.3-7.7-6.4l-.7-3.1c-4.1,7.5-11,10.9-20.2,10.9-17.7,0-29.1-11.9-29.1-32.3s11.4-33,29.2-33,15.1,3.1,19.2,9.6v-37.2c0-5.2,1.3-6.5,6.5-6.5h3.3c5.2,0,6.5,1.3,6.5,6.5v85.1c0,5.2-1.3,6.5-6.5,6.5h-.7ZM712.6,212.3c-9.6,0-15.6,7.1-15.6,19.1s6.2,18.2,15.7,18.2,16-8,16-18.2-5.5-19.1-16.1-19.1Z"/>
        <path class="cls-1" d="M813,199.8c5.2,0,6.5,1.3,6.5,6.5v49.5c0,5.2-.8,6.5-5.1,6.5h-1c-4.5,0-5.9-1.3-7.1-6.3l-.4-3.5c-2.1,6.5-12.7,11.1-22.8,11.1s-21.1-7.2-21.1-23.4v-33.9c0-5.2,1.3-6.5,6.5-6.5h3.1c5.2,0,6.5,1.3,6.5,6.5v30c0,9,3.4,13.1,10.2,13.1s14.7-4.1,14.7-16.6v-26.4c0-5.2,1.3-6.5,6.5-6.5h3.3Z"/>
        <path class="cls-1" d="M850.2,231.3c0,11.5,6.2,17.8,15.8,17.8s7.6-1,10.2-2.7c1.6-.9,2.7-1.3,3.8-1.3s2.2.7,3.9,2.2l1.8,1.7c1.7,1.6,2.5,3,2.5,4.3s-.8,2.6-2.4,3.7c-6.4,5-13.1,6.7-20,6.7-20.3,0-32.1-11.4-32.1-32.3s11.9-33,31.8-33,13.7,2.1,19.4,6.4c.9.7,2.5,1.8,2.5,3.7s-.7,2.5-2.2,3.9l-2.9,2.6c-1.4,1.3-2.9,2-4.3,2s-2.2-.4-3.5-1.2c-2.4-1.6-4.8-2.9-8.6-2.9-10.1,0-15.7,6.9-15.7,18.5Z"/>
        <path class="cls-1" d="M921.9,199.8h9.4c5.1,0,6.5,1.3,6.5,6.5v2c0,5.2-1.4,6.5-6.5,6.5h-9.4v23.4c0,8.2,3.3,10.1,6.9,10.1s4.3-.4,6.2-.4c2.4-.1,3.7,1.2,3.7,4.5v5.9c0,3.3-1.8,4.6-4.4,4.7-2.4.3-5,.4-7.3.4-14.4,0-21.3-7.2-21.3-20.8v-27.7h-3.5c-5.2,0-6.5-1.3-6.5-6.5v-2c0-5.2,1.3-6.5,6.5-6.5h3.5l4.2-9.8c1.8-3.4,3.4-7.5,6.7-7.5h1c3.5,0,4.4,1.3,4.4,6.5v10.7Z"/>
        <path class="cls-1" d="M959.3,169.3c6.3,0,9.3,4.3,9.3,9.4s-3,9.3-9.3,9.3-9.4-4.2-9.4-9.3,3.1-9.4,9.4-9.4ZM951.1,206.3c0-5.2,1.3-6.5,6.5-6.5h3.3c5.2,0,6.5,1.3,6.5,6.5v49.5c0,5.2-1.3,6.5-6.5,6.5h-3.3c-5.2,0-6.5-1.3-6.5-6.5v-49.5Z"/>
        <path class="cls-1" d="M1014.4,263.6c-19.9,0-32.8-11.3-32.8-32.6s13-32.7,32.8-32.7,33,11.4,33,32.7-12.8,32.6-33,32.6ZM1014.4,249.5c10.1,0,16.4-6.7,16.4-18.5s-6.3-18.6-16.4-18.6-16.2,6.8-16.2,18.6,6.3,18.5,16.2,18.5Z"/>
        <path class="cls-1" d="M1078.1,210.9c1.8-7.3,9.2-12.6,19.5-12.6s21.7,8.5,21.7,24.1v33.4c0,5.2-1.3,6.5-6.5,6.5h-3.3c-5.2,0-6.5-1.3-6.5-6.5v-30.1c0-8.2-3.5-13.2-9.9-13.2s-14.9,7.9-14.9,18.6v24.7c0,5.2-1.3,6.5-6.5,6.5h-3.3c-5.2,0-6.5-1.3-6.5-6.5v-49.5c0-5.2,1.3-6.5,6.5-6.5h3.3c5.2,0,6.5,1.3,6.5,6.5v4.6Z"/>
      </g>
    </g>
  </g>
</svg>