<?xml version="1.0" encoding="UTF-8"?><svg id="Layer_1" xmlns="http://www.w3.org/2000/svg" viewBox="0 0 341.97 299.5"><defs><style>.cls-1{fill:#fff;}</style></defs><path class="cls-1" d="M250.08,185.9c50.84-.58,91.88-41.96,91.88-92.94,0-7.11-.8-14.03-2.31-20.68-6.56-28.87-26.56-52.63-53.07-64.36-11.49-5.08-24.2-7.91-37.57-7.91-19.33,0-37.27,5.9-52.14,15.99-19.16,13.01-33.21,32.98-38.5,56.28-.56,2.46-1.02,4.96-1.38,7.5-.61,4.31-.93,8.71-.93,13.18,0,2.41,.09,4.81,.27,7.17,1,46.34,18.86,88.43,47.57,120.16,7.24,8.01,15.18,15.35,23.71,21.94,.82,.63,1.98,.55,2.72-.17l16.35-16.18,7.93-7.85c.87-.86,.81-2.28-.13-3.06-9.97-8.27-19.05-17.6-27.08-27.83-1.19-1.52,.18-3.7,2.06-3.3,6.31,1.35,12.85,2.07,19.57,2.07,.36,0,.72,0,1.07-.01Zm51.98-89.6c0,23.15-16.36,42.47-38.14,47.06-3.05,.49-6.15,.83-9.3,1.02-1.86,.11-3.73,.17-5.61,.17-15.85,0-30.78-3.97-43.84-10.97-1.73-.93-3.42-1.91-5.09-2.94-.42-.26-.73-.66-.88-1.12-1.94-5.98-3.28-12.22-3.97-18.66-.35-3.29-.54-6.63-.54-10.01s.18-6.66,.53-9.92c0-.06,.02-.13,.03-.19,4.74-25.38,27-44.6,53.76-44.6,12.4,0,23.83,4.13,33.01,11.09,5.28,4,9.81,8.95,13.34,14.57,4.25,7.17,6.7,15.54,6.7,24.48Zm-105.15,175.51c.82,.81,.82,2.14,0,2.95l-24.39,24.15c-.81,.8-2.1,.8-2.91,0l-68.77-67.73L31.29,162.69v-.02c-13.75-12.2-23.86-28.42-28.49-46.83-1.83-7.27-2.8-14.88-2.8-22.71,0-13.67,2.95-26.65,8.25-38.34C22.85,22.59,54.93,0,92.6,0c2.1,0,4.68,.07,6.75,.18,12.16,.67,24.72,3.98,36.3,9.89,4.46,2.28,8.73,4.95,12.57,7.73,3.39,2.45,6.45,5,9.01,7.43,.81,.77,.86,2.05,.11,2.88-8.06,8.99-12.64,13.49-17.72,25.34-.04,.09-.74,1.72-1.39,3.23-.54,1.25-2.11,1.66-3.18,.82h0c-6.16-4.77-12.79-7.36-16.02-8.54-.05-.02-.1-.03-.15-.05-3.71-1.04-8.14-1.95-12.01-2.53-1.85-.19-4.17-.25-6.07-.25-29.4,0-53.85,24.72-53.85,54.93,0,13.34,4.22,25.52,12.15,35.02,.05,.06,.1,.11,.15,.16l4.06,4c1.42,1.26,2.87,2.46,4.37,3.62,.17,.13,.35,.23,.54,.3,10.24,3.88,21.35,5.96,32.95,6.02,9.95,.05,23.55-2.48,33.79-6.2,1.13-.41,2.38,.23,2.7,1.39,2.12,7.74,4.72,15.27,7.77,22.56,.39,.93,.07,2-.78,2.55-2.23,1.45-4.41,2.78-6.48,4-8.15,4.65-16.47,7.65-25.78,9.56-1.63,.33-2.23,2.34-1.05,3.51l30.51,30.05,55.04,54.19Z"/></svg>